<svg width="30" height="33" viewBox="0 0 30 33" fill="none" xmlns="http://www.w3.org/2000/svg">
<g clip-path="url(#clip0_15_383)">
<path d="M23.5625 14.2863L24.8875 12.8287C25.8625 11.7562 25.8625 10.01 24.8875 8.9375L23.125 6.99875C22.15 5.92625 20.5625 5.92625 19.5875 6.99875L18.2625 8.45625L23.5625 14.2863ZM16.4875 10.395L5 23.045V28.875H10.3L21.7875 16.2388L16.4875 10.395ZM23.75 24.0625C23.75 27.0737 20.575 28.875 17.5 28.875C16.8125 28.875 16.25 28.2563 16.25 27.5C16.25 26.7437 16.8125 26.125 17.5 26.125C19.425 26.125 21.25 25.1213 21.25 24.0625C21.25 23.4163 20.65 22.8662 19.7125 22.4125L21.5625 20.3775C22.9 21.2437 23.75 22.3988 23.75 24.0625ZM5.725 18.3563C4.5125 17.5863 3.75 16.5825 3.75 15.125C3.75 12.65 6.1125 11.5087 8.2 10.505C9.4875 9.8725 11.25 9.02 11.25 8.25C11.25 7.68625 10.275 6.875 8.75 6.875C7.175 6.875 6.5 7.71375 6.4625 7.755C6.025 8.31875 5.2375 8.3875 4.7125 7.92C4.2 7.4525 4.1 6.61375 4.525 6.0225C4.6625 5.83 5.95 4.125 8.75 4.125C11.55 4.125 13.75 5.94 13.75 8.25C13.75 10.8212 11.3375 11.99 9.2 13.0213C8.025 13.585 6.25 14.4375 6.25 15.125C6.25 15.5513 6.7875 15.95 7.5875 16.3075L5.725 18.3563Z" fill="#DE702B"/>
</g>
<defs>
<clipPath id="clip0_15_383">
<rect width="30" height="33" fill="white"/>
</clipPath>
</defs>
</svg>
