<svg width="17" height="17" viewBox="0 0 17 17" fill="none" xmlns="http://www.w3.org/2000/svg">
<g clip-path="url(#clip0_15_75)">
<path d="M11.6875 2.125C10.455 2.125 9.27208 2.69875 8.5 3.60542C7.72791 2.69875 6.545 2.125 5.3125 2.125C3.13083 2.125 1.41666 3.83917 1.41666 6.02083C1.41666 8.69833 3.825 10.88 7.47291 14.195L8.5 15.1229L9.52708 14.1879C13.175 10.88 15.5833 8.69833 15.5833 6.02083C15.5833 3.83917 13.8692 2.125 11.6875 2.125ZM8.57083 13.1396L8.5 13.2104L8.42916 13.1396C5.0575 10.0867 2.83333 8.06792 2.83333 6.02083C2.83333 4.60417 3.89583 3.54167 5.3125 3.54167C6.40333 3.54167 7.46583 4.24292 7.84125 5.21333H9.16583C9.53416 4.24292 10.5967 3.54167 11.6875 3.54167C13.1042 3.54167 14.1667 4.60417 14.1667 6.02083C14.1667 8.06792 11.9425 10.0867 8.57083 13.1396Z" fill="#DE702B"/>
</g>
<defs>
<clipPath id="clip0_15_75">
<rect width="17" height="17" fill="white"/>
</clipPath>
</defs>
</svg>
