<svg width="101" height="100" viewBox="0 0 101 100" fill="none" xmlns="http://www.w3.org/2000/svg">
<path d="M50.5 0C22.624 0 0 22.4 0 50C0 77.6 22.624 100 50.5 100C78.376 100 101 77.6 101 50C101 22.4 78.376 0 50.5 0ZM50.5 20C60.2465 20 68.175 27.85 68.175 37.5C68.175 47.15 60.2465 55 50.5 55C40.7535 55 32.825 47.15 32.825 37.5C32.825 27.85 40.7535 20 50.5 20ZM50.5 90C40.2485 90 28.1285 85.9 19.493 75.6C28.0275 69 38.784 65 50.5 65C62.216 65 72.9725 69 81.507 75.6C72.8715 85.9 60.7515 90 50.5 90Z" fill="black"/>
</svg>
