<svg width="20" height="20" viewBox="0 0 20 20" fill="none" xmlns="http://www.w3.org/2000/svg">
<path d="M11 10.175V7C11 6.71667 10.9043 6.479 10.713 6.287C10.521 6.09567 10.2833 6 10 6C9.71667 6 9.47933 6.09567 9.288 6.287C9.096 6.479 9 6.71667 9 7V10C9 10.3333 9.05833 10.6417 9.175 10.925C9.29167 11.2083 9.46667 11.4667 9.7 11.7L11.825 13.825C12.025 14.025 12.2627 14.125 12.538 14.125C12.8127 14.125 13.05 14.025 13.25 13.825C13.4333 13.625 13.525 13.3877 13.525 13.113C13.525 12.8377 13.4333 12.6083 13.25 12.425L11 10.175ZM10 2C9.71667 2 9.47933 2.09567 9.288 2.287C9.096 2.479 9 2.71667 9 3C9 3.28333 9.096 3.521 9.288 3.713C9.47933 3.90433 9.71667 4 10 4C10.2833 4 10.521 3.90433 10.713 3.713C10.9043 3.521 11 3.28333 11 3C11 2.71667 10.9043 2.479 10.713 2.287C10.521 2.09567 10.2833 2 10 2ZM18 10C18 9.71667 17.904 9.479 17.712 9.287C17.5207 9.09567 17.2833 9 17 9C16.7167 9 16.4793 9.09567 16.288 9.287C16.096 9.479 16 9.71667 16 10C16 10.2833 16.096 10.5207 16.288 10.712C16.4793 10.904 16.7167 11 17 11C17.2833 11 17.5207 10.904 17.712 10.712C17.904 10.5207 18 10.2833 18 10ZM10 16C9.71667 16 9.47933 16.096 9.288 16.288C9.096 16.4793 9 16.7167 9 17C9 17.2833 9.096 17.5207 9.288 17.712C9.47933 17.904 9.71667 18 10 18C10.2833 18 10.521 17.904 10.713 17.712C10.9043 17.5207 11 17.2833 11 17C11 16.7167 10.9043 16.4793 10.713 16.288C10.521 16.096 10.2833 16 10 16ZM4 10C4 9.71667 3.90433 9.479 3.713 9.287C3.521 9.09567 3.28333 9 3 9C2.71667 9 2.479 9.09567 2.287 9.287C2.09567 9.479 2 9.71667 2 10C2 10.2833 2.09567 10.5207 2.287 10.712C2.479 10.904 2.71667 11 3 11C3.28333 11 3.521 10.904 3.713 10.712C3.90433 10.5207 4 10.2833 4 10ZM10 20C8.61667 20 7.31667 19.7373 6.1 19.212C4.88333 18.6873 3.825 17.975 2.925 17.075C2.025 16.175 1.31267 15.1167 0.788 13.9C0.262667 12.6833 0 11.3833 0 10C0 8.61667 0.262667 7.31667 0.788 6.1C1.31267 4.88333 2.025 3.825 2.925 2.925C3.825 2.025 4.88333 1.31233 6.1 0.787C7.31667 0.262333 8.61667 0 10 0C11.3833 0 12.6833 0.262333 13.9 0.787C15.1167 1.31233 16.175 2.025 17.075 2.925C17.975 3.825 18.6873 4.88333 19.212 6.1C19.7373 7.31667 20 8.61667 20 10C20 11.3833 19.7373 12.6833 19.212 13.9C18.6873 15.1167 17.975 16.175 17.075 17.075C16.175 17.975 15.1167 18.6873 13.9 19.212C12.6833 19.7373 11.3833 20 10 20Z" fill="black"/>
</svg>
